<?xml version="1.0" encoding="UTF-8"?>
<svg width="20px" height="20px" viewBox="0 0 20 20" version="1.1" xmlns="http://www.w3.org/2000/svg" xmlns:xlink="http://www.w3.org/1999/xlink">
    <!-- Generator: Sketch 53 (72520) - https://sketchapp.com -->
    <title>ic_filter_none_24px</title>
    <desc>Created with Sketch.</desc>
    <g id="Page-1" stroke="none" stroke-width="1" fill="none" fill-rule="evenodd">
        <g id="Desktop_01" transform="translate(-1076.000000, -31.000000)">
            <g id="ic_filter_none_24px" transform="translate(1076.000000, 31.000000)">
                <g id="Group">
                    <polygon id="Shape" points="0 0 20 0 20 20 0 20"></polygon>
                    <path d="M2.5,4.16666667 L0.833333333,4.16666667 L0.833333333,17.5 C0.833333333,18.4166667 1.58333333,19.1666667 2.5,19.1666667 L15.8333333,19.1666667 L15.8333333,17.5 L2.5,17.5 L2.5,4.16666667 L2.5,4.16666667 Z M17.5,0.833333333 L5.83333333,0.833333333 C4.91666667,0.833333333 4.16666667,1.58333333 4.16666667,2.5 L4.16666667,14.1666667 C4.16666667,15.0833333 4.91666667,15.8333333 5.83333333,15.8333333 L17.5,15.8333333 C18.4166667,15.8333333 19.1666667,15.0833333 19.1666667,14.1666667 L19.1666667,2.5 C19.1666667,1.58333333 18.4166667,0.833333333 17.5,0.833333333 L17.5,0.833333333 Z M17.5,14.1666667 L5.83333333,14.1666667 L5.83333333,2.5 L17.5,2.5 L17.5,14.1666667 L17.5,14.1666667 Z" id="Shape" fill="#FFFFFF"></path>
                </g>
            </g>
        </g>
    </g>
</svg>