<?xml version="1.0" encoding="UTF-8"?>
<svg width="12px" height="22px" viewBox="0 0 12 22" version="1.1" xmlns="http://www.w3.org/2000/svg" xmlns:xlink="http://www.w3.org/1999/xlink">
    <!-- Generator: Sketch 53 (72520) - https://sketchapp.com -->
    <title>Shape Copy 2</title>
    <desc>Created with Sketch.</desc>
    <g id="Page-1" stroke="none" stroke-width="1" fill="none" fill-rule="evenodd">
        <g id="Desktop_01" transform="translate(-357.000000, -27.000000)" fill="#FFFFFF">
            <path d="M367.285714,27 L358.714286,27 C357.771429,27 357,27.9 357,29 L357,47 C357,48.1 357.771429,49 358.714286,49 L367.285714,49 C368.228571,49 369,48.1 369,47 L369,29 C369,27.9 368.228571,27 367.285714,27 L367.285714,27 Z M368.142857,45 L357.857143,45 L357.857143,29 L368.142857,29 L368.142857,45 Z M363,48 C362.447715,48 362,47.5522847 362,47 C362,46.4477153 362.447715,46 363,46 C363.552285,46 364,46.4477153 364,47 C364,47.5522847 363.552285,48 363,48 Z" id="Shape-Copy-2"></path>
        </g>
    </g>
</svg>