<?xml version="1.0" encoding="UTF-8"?>
<svg width="19px" height="20px" viewBox="0 0 19 20" version="1.1" xmlns="http://www.w3.org/2000/svg" xmlns:xlink="http://www.w3.org/1999/xlink">
    <!-- Generator: Sketch 53 (72520) - https://sketchapp.com -->
    <title>Shape</title>
    <desc>Created with Sketch.</desc>
    <g id="Page-1" stroke="none" stroke-width="1" fill="none" fill-rule="evenodd">
        <g id="Desktop_01" transform="translate(-1024.000000, -32.000000)" fill="#FFFFFF">
            <path d="M1040.75867,42.98 C1040.79774,42.66 1040.82704,42.34 1040.82704,42 C1040.82704,41.66 1040.79774,41.34 1040.75867,41.02 L1042.8194,39.37 C1043.00497,39.22 1043.0538,38.95 1042.9366,38.73 L1040.9833,35.27 C1040.8661,35.05 1040.60241,34.97 1040.38754,35.05 L1037.95568,36.05 C1037.44783,35.65 1036.9009,35.32 1036.30514,35.07 L1035.93402,32.42 C1035.90472,32.18 1035.69962,32 1035.45546,32 L1031.54886,32 C1031.30469,32 1031.0996,32.18 1031.0703,32.42 L1030.69917,35.07 C1030.10341,35.32 1029.55649,35.66 1029.04863,36.05 L1026.61677,35.05 C1026.39214,34.96 1026.13821,35.05 1026.02101,35.27 L1024.06771,38.73 C1023.94075,38.95 1023.99935,39.22 1024.18491,39.37 L1026.24564,41.02 C1026.20658,41.34 1026.17728,41.67 1026.17728,42 C1026.17728,42.33 1026.20658,42.66 1026.24564,42.98 L1024.18491,44.63 C1023.99935,44.78 1023.95051,45.05 1024.06771,45.27 L1026.02101,48.73 C1026.13821,48.95 1026.40191,49.03 1026.61677,48.95 L1029.04863,47.95 C1029.55649,48.35 1030.10341,48.68 1030.69917,48.93 L1031.0703,51.58 C1031.0996,51.82 1031.30469,52 1031.54886,52 L1035.45546,52 C1035.69962,52 1035.90472,51.82 1035.93402,51.58 L1036.30514,48.93 C1036.9009,48.68 1037.44783,48.34 1037.95568,47.95 L1040.38754,48.95 C1040.61217,49.04 1040.8661,48.95 1040.9833,48.73 L1042.9366,45.27 C1043.0538,45.05 1043.00497,44.78 1042.8194,44.63 L1040.75867,42.98 L1040.75867,42.98 Z M1033.50216,45.5 C1031.61722,45.5 1030.08388,43.93 1030.08388,42 C1030.08388,40.07 1031.61722,38.5 1033.50216,38.5 C1035.38709,38.5 1036.92043,40.07 1036.92043,42 C1036.92043,43.93 1035.38709,45.5 1033.50216,45.5 L1033.50216,45.5 Z" id="Shape"></path>
        </g>
    </g>
</svg>