<?xml version="1.0" encoding="UTF-8"?>
<svg width="20px" height="26px" viewBox="0 0 20 26" version="1.1" xmlns="http://www.w3.org/2000/svg" xmlns:xlink="http://www.w3.org/1999/xlink">
    <!-- Generator: Sketch 53 (72520) - https://sketchapp.com -->
    <title>Shape Copy</title>
    <desc>Created with Sketch.</desc>
    <g id="Page-1" stroke="none" stroke-width="1" fill="none" fill-rule="evenodd">
        <g id="Desktop_01" transform="translate(-317.000000, -25.000000)" fill="#FFFFFF">
            <path d="M334.142857,25 L319.857143,25 C318.285714,25 317,26.0636364 317,27.3636364 L317,48.6363636 C317,49.9363636 318.285714,51 319.857143,51 L334.142857,51 C335.714286,51 337,49.9363636 337,48.6363636 L337,27.3636364 C337,26.0636364 335.714286,25 334.142857,25 L334.142857,25 Z M335.571429,46.2727273 L318.428571,46.2727273 L318.428571,27.3636364 L335.571429,27.3636364 L335.571429,46.2727273 Z M327.588235,49.8181818 C326.938489,49.8181818 326.411765,49.2890638 326.411765,48.6363636 C326.411765,47.9836635 326.938489,47.4545455 327.588235,47.4545455 C328.237982,47.4545455 328.764706,47.9836635 328.764706,48.6363636 C328.764706,49.2890638 328.237982,49.8181818 327.588235,49.8181818 Z" id="Shape-Copy"></path>
        </g>
    </g>
</svg>